<svg className={classId.classId} width="72" height="103" viewBox="0 0 72 103" fill="none" xmlns="http://www.w3.org/2000/svg">
<path d="M41.8898 0C41.8898 0 53.3866 17.1667 51.4801 34.0659C49.458 51.0722 37.0946 58.7731 30.9707 71.7684C24.9045 84.8172 28.4287 98.3474 33.5127 101.877C26.811 97.4382 9.19031 89.149 10.4613 67.2227C11.0968 60.431 15.6031 48.2378 26.4644 36.419C37.3835 24.6002 44.4318 19.8406 41.8898 0Z" fill="#F3F8FE"/>
<path d="M17.1051 93.3204C17.1051 93.3204 0.697644 82.6781 0.0621424 66.474C-0.57336 59.3614 3.64406 48.5052 13.6965 40.216C25.2511 30.6968 28.4286 28.7715 30.7973 26.365C24.1534 33.6916 9.65244 47.9169 7.28376 60.1635C4.97284 72.4102 9.65244 85.0311 17.1051 93.3204Z" fill="#F3F8FE"/>
<path d="M37.3835 103C37.3835 103 27.1577 89.149 34.6104 74.1749C37.1524 69.6292 46.1072 59.7357 50.3824 50.6978C54.6576 41.6064 55.5242 36.0981 55.2931 29.7876C61.8792 38.2907 72.5672 63.5861 60.4349 83.1059C64.2479 80.9133 69.7941 75.9932 71.9317 70.6453C70.8918 81.5015 65.5767 101.823 37.3835 103Z" fill="#F3F8FE"/>
<path d="M38.4811 100.807C38.4811 100.807 31.9528 90.0046 39.3477 79.2554C45.2983 70.5919 51.5378 68.7736 55.1197 59.3079C55.7552 69.2014 55.3508 82.1967 46.1649 93.2668C49.9779 92.6786 52.3466 91.502 55.5241 89.5233C53.3865 93.7482 49.3424 99.0425 38.4811 100.807Z" fill="#F3F8FE"/>
<path d="M27.7354 95.7804C27.7354 95.7804 9.24804 76.3676 22.2469 56.4201C31.2017 41.9808 42.7563 41.1251 45.2983 20.215C45.2983 35.296 47.0315 42.676 33.0505 59.4683C23.8646 70.485 21.7848 85.2986 27.7354 95.7804Z" fill="#F3F8FE"/>
<path d="M50.6712 1.92523C50.6712 1.92523 55.8708 15.8832 40.3299 35.9912C29.0064 50.5374 6.70607 72.1963 30.393 98.6682C20.8027 89.4699 11.5012 73.4798 21.8426 54.5483C31.3173 37.2747 54.1954 26.1511 50.6712 1.92523Z" fill="#F3F8FE"/>
</svg>